# xmcd
#
# Track frame offsets: 
#        150
#        14729
#        31373
#        46385
#        58509
#        78231
#        94025
#        113604
#        130318
#        149789
#        165557
#        181766
#        198831
#
# Disc length: 2910 seconds
#
# Revision: 0
# Processed by: cddbd v1.5.2PL0 Copyright (c) Steve Scherf et al.
# Submitted via: ExactAudioCopyFreeDBPlugin 1.0
#
DISCID=ab0b5c0d
DTITLE=Kenny Rogers - 25 Greatest Hits - Disc 2
DYEAR=1987
DGENRE=Country
TTITLE0=Daytime Friends
TTITLE1=You Decorated My Life
TTITLE2='Till I Can Make It On My Own
TTITLE3=Reuben James
TTITLE4=Coward Of The County
TTITLE5=I Don't Need You
TTITLE6=Something's Burning
TTITLE7=Love Will Turn You Around
TTITLE8=Abraham, Martin, And John - Precious Memories
TTITLE9=Love Is What We Make It
TTITLE10=Green Green Grass Of Home
TTITLE11=Desperado
TTITLE12=Sweet Music Man
EXTD=
EXTT0=
EXTT1=
EXTT2=
EXTT3=
EXTT4=
EXTT5=
EXTT6=
EXTT7=
EXTT8=
EXTT9=
EXTT10=
EXTT11=
EXTT12=
PLAYORDER=
